<svg width="26" height="14" viewBox="0 0 26 14" fill="none" xmlns="http://www.w3.org/2000/svg">
<path d="M20.7639 13.76C19.0034 13.76 17.5126 13.455 16.2917 12.845C15.0707 12.2224 14.1549 11.4028 13.5444 10.3862C12.9481 9.35686 12.65 8.2386 12.65 7.03139C12.65 5.83689 12.9623 4.73135 13.587 3.71475C14.2259 2.69816 15.1701 1.88488 16.4194 1.27492C17.6688 0.664964 19.1738 0.359985 20.9343 0.359985C22.5812 0.359985 24.0293 0.645903 25.2787 1.21774L24.512 3.61944C23.9867 3.378 23.4401 3.18739 22.8722 3.04761C22.3043 2.89512 21.6583 2.81888 20.9343 2.81888C20.0114 2.81888 19.2093 3.00949 18.5278 3.39071C17.8605 3.75923 17.3494 4.26753 16.9944 4.91561C16.6537 5.55098 16.4833 6.26259 16.4833 7.05046C16.4833 8.29579 16.8525 9.31873 17.5907 10.1193C18.329 10.9072 19.3867 11.3011 20.7639 11.3011C21.9423 11.3011 23.213 11.0406 24.5759 10.5196L25.3 12.8641C24.7179 13.131 24.0222 13.347 23.213 13.5122C22.4037 13.6774 21.5873 13.76 20.7639 13.76Z" fill="#3470FF"/>
<path d="M5.43843 8.83742H3.5468V13.7635H0V0.364502H5.35962C7.27752 0.364502 8.67654 0.692909 9.55667 1.34972C10.4368 1.9934 10.8769 3.01147 10.8769 4.40392C10.8769 6.21673 10.2135 7.43184 8.88672 8.04925L12.6503 13.7635H8.55174L5.43843 8.83742ZM3.5468 6.37436H5.35962C6.05584 6.37436 6.55502 6.22987 6.85716 5.94087C7.17243 5.65187 7.33006 5.20523 7.33006 4.60096C7.33006 3.97042 7.179 3.51722 6.87686 3.24135C6.57472 2.96549 6.06898 2.82756 5.35962 2.82756H3.5468V6.37436Z" fill="#101828"/>
</svg>
